PathFileType	4	(X/Y/Z)	Walk2.trc
DataRate	CameraRate	NumFrames	NumMarkers	Units	OrigDataRate	OrigDataStartFrame	OrigNumFrames
200.000000	200.000000	8	59	mm	200.000000	289	574
Frame#	Times		RFHD		CLAV		STRN		LASI		RASI		RACR1		RUA1		RElbow		RFA1		RWRU		LACR1		LUA1		LFA1		LCAR		RTH1		RTH2		LTH3		LTH2		LTH4		LLFC		LTB1		LTB3		LTB4		LLMAL		LMT1		LToe		RTH3		LTH1		LFHD		C7		RCAR		RTH4		LWRR		RLFC		LTB2		RBack		RPSI		LMT5		LMMAL		RBHD		T10		LPSI		LElbow		RTB1		LWRU		RTB2		RCAL		RMMAL		RTB4		RToe		RMT1		RTB3		RWRR		LElbowM		LBHD		RElbowM		RMT5		RLMAL		LCAL
			X1	Y1	Z1	X2	Y2	Z2	X3	Y3	Z3	X4	Y4	Z4	X5	Y5	Z5	X6	Y6	Z6	X7	Y7	Z7	X8	Y8	Z8	X9	Y9	Z9	X10	Y10	Z10	X11	Y11	Z11	X12	Y12	Z12	X13	Y13	Z13	X14	Y14	Z14	X15	Y15	Z15	X16	Y16	Z16	X17	Y17	Z17	X18	Y18	Z18	X19	Y19	Z19	X20	Y20	Z20	X21	Y21	Z21	X22	Y22	Z22	X23	Y23	Z23	X24	Y24	Z24	X25	Y25	Z25	X26	Y26	Z26	X27	Y27	Z27	X28	Y28	Z28	X29	Y29	Z29	X30	Y30	Z30	X31	Y31	Z31	X32	Y32	Z32	X33	Y33	Z33	X34	Y34	Z34	X35	Y35	Z35	X36	Y36	Z36	X37	Y37	Z37	X38	Y38	Z38	X39	Y39	Z39	X40	Y40	Z40	X41	Y41	Z41	X42	Y42	Z42	X43	Y43	Z43	X44	Y44	Z44	X45	Y45	Z45	X46	Y46	Z46	X47	Y47	Z47	X48	Y48	Z48	X49	Y49	Z49	X50	Y50	Z50	X51	Y51	Z51	X52	Y52	Z52	X53	Y53	Z53	X54	Y54	Z54	X55	Y55	Z55	X56	Y56	Z56	X57	Y57	Z57	X58	Y58	Z58	X59	Y59	Z59

289	1.445	-410.85	1583	-1.0273	-460.25	1339.8	-47.74	-384.55	1116.4	-36.367	-437.32	938.02	-156.06	-444.28	940.55	104.63	-507.23	1358.6	125.73	-532.04	1149.3	193.25	-555.89	1043.2	218.34	-477.71	908.34	218.32	-490.91	796.34	228.2	-524.13	1348.2	-216.39	-566.88	1141.5	-254.06	-568.37	898.51	-269.03	-575.06	737.16	-269.27	-528.7	735.55	145.25	-453.35	656.15	104.7	-468.32	564.55	-156.93	-423.06	669.78	-149.33	-492.35	648.38	-177.31	-452.44	457.03	-142.02	-420.63	361.57	-59.729	-439.22	174.94	-53.863	-428.74	266.27	-60.435	-482.67	61.302	-97.028	-334.12	38.716	-55.399	-289.02	30.672	-81.878	-509.22	549.14	116.86	-515.14	740.59	-198.32	-410.74	1578.2	-73.9	-585.06	1419.4	-43.474	-438.48	764.36	222.68	-519.88	642.43	128.93	-562.74	780.69	-228.21	-514.33	456.23	103.84	-451.47	267.59	-128.89	-628.3	1318.8	59.382	-658.95	975.95	33.703	-373.48	22.641	-133.41	-467.68	75.323	-17.086	-585.79	1551.5	19.24	-625.86	1136	-31.51	-656.65	976.43	-82.144	-602.97	1026	-258.79	-569.07	346.57	39.432	-616.38	785.51	-275.81	-654.41	316.33	110.46	-886.21	241.93	43.482	-811.07	214.79	16.155	-648.62	299.26	40.865	-770.93	45.18	63.265	-785.55	76.235	34.488	-727.19	250.58	42.45	-442.46	811.54	174.56	-622.41	1018.4	-190.13	-578.91	1554.6	-107.85	-569.94	1020.9	135.48	-832.77	88.443	102.22	-839.87	221.05	92.253	-531.77	29.211	-43.936
290	1.45	-405.26	1583.6	-1.1339	-454.93	1340.6	-47.973	-379.4	1117	-36.48	-432.61	938.65	-156.66	-439.28	941.51	104.72	-502.15	1359.4	125.54	-527.76	1150.1	192.96	-551.94	1044	217.9	-474.6	908.74	218.24	-488.51	796.85	228.23	-518.54	1349.1	-216.65	-560.35	1142.2	-254.58	-560.53	899.19	-269.26	-566.47	737.78	-269.23	-521.94	736.85	145.22	-445.6	658.15	105.03	-465.48	564.6	-157.08	-419.51	669.52	-149.57	-488.95	648.59	-177.46	-450.35	456.93	-142.12	-419.11	361.34	-59.797	-438.64	174.8	-53.87	-427.75	266.08	-60.456	-482.64	61.332	-97.015	-334.14	38.734	-55.457	-288.94	30.612	-82.029	-500.47	550.62	117	-511.12	740.95	-198.47	-405.12	1579	-74.006	-579.65	1420.2	-43.788	-436.34	764.47	222.77	-512.15	643.88	129.03	-554.83	781.48	-228.13	-504.06	458.03	103.92	-450.3	267.46	-128.98	-623.12	1319.7	58.86	-653.6	976.87	33.531	-373.49	22.606	-133.47	-467.58	75.317	-17.069	-580.23	1552.3	19.049	-620.61	1136.9	-32.049	-651.58	977.25	-82.296	-595.81	1026.5	-259.53	-558.39	348.36	39.337	-607.9	785.98	-276.44	-643.66	317.99	110.23	-875.47	242.73	42.665	-799.92	216.11	15.732	-637.77	300.94	40.645	-758.16	47.061	64.98	-772.94	77.942	35.798	-716.29	252.18	42.133	-439.9	811.66	174.62	-615.87	1018.9	-191.07	-573.3	1555.6	-108.06	-565.88	1021.8	135.1	-820.47	90.606	103.13	-828.99	222.57	91.776	-531.75	29.251	-43.877
291	1.455	-399.69	1584.3	-1.2197	-449.64	1341.4	-48.194	-374.27	1117.7	-36.595	-427.93	939.27	-157.29	-434.32	942.43	104.85	-497.08	1360.1	125.36	-523.48	1150.8	192.67	-548	1044.9	217.47	-471.5	909.15	218.17	-486.12	797.36	228.28	-513	1350	-216.9	-553.84	1142.9	-255.09	-552.64	899.9	-269.47	-557.77	738.44	-269.17	-515.25	738.17	145.22	-437.93	660.2	105.38	-462.66	564.66	-157.19	-415.98	669.25	-149.77	-485.57	648.79	-177.58	-448.3	456.84	-142.19	-417.62	361.12	-59.835	-438.06	174.67	-53.866	-426.76	265.89	-60.458	-482.6	61.366	-96.996	-334.15	38.75	-55.514	-288.87	30.556	-82.168	-491.8	552.14	117.12	-507.11	741.31	-198.59	-399.52	1579.7	-74.092	-574.27	1421.1	-44.078	-434.2	764.59	222.86	-504.5	645.35	129.14	-546.84	782.29	-228.04	-493.87	459.88	103.98	-449.16	267.33	-129.05	-617.96	1320.5	58.359	-648.24	977.79	33.397	-373.5	22.573	-133.53	-467.48	75.308	-17.044	-574.69	1553.2	18.89	-615.38	1137.8	-32.587	-646.53	978.07	-82.414	-588.66	1027.1	-260.29	-547.7	350.14	39.214	-599.34	786.45	-277.06	-632.86	319.54	109.96	-864.58	243.12	41.753	-788.6	217.12	15.242	-626.85	302.53	40.388	-745.01	48.792	66.726	-759.98	79.425	37.109	-705.27	253.57	41.767	-437.35	811.78	174.68	-609.35	1019.4	-192.04	-567.71	1556.5	-108.24	-561.88	1022.6	134.75	-807.86	92.51	104.06	-817.95	223.78	91.227	-531.74	29.293	-43.812
292	1.46	-394.12	1585	-1.2852	-444.37	1342.2	-48.402	-369.16	1118.4	-36.715	-423.27	939.86	-157.95	-429.38	943.32	105.01	-492.03	1360.8	125.19	-519.19	1151.5	192.37	-544.06	1045.7	217.06	-468.41	909.55	218.09	-483.74	797.88	228.32	-507.5	1350.9	-217.13	-547.37	1143.6	-255.59	-544.7	900.63	-269.67	-548.96	739.14	-269.11	-508.63	739.51	145.25	-430.33	662.28	105.77	-459.86	564.71	-157.27	-412.48	668.97	-149.93	-482.2	649	-177.66	-446.28	456.75	-142.23	-416.17	360.89	-59.844	-437.49	174.54	-53.851	-425.78	265.7	-60.442	-482.57	61.405	-96.97	-334.17	38.764	-55.568	-288.81	30.504	-82.293	-483.2	553.71	117.25	-503.11	741.66	-198.67	-393.93	1580.4	-74.159	-568.91	1422	-44.347	-432.07	764.72	222.97	-496.92	646.85	129.26	-538.78	783.13	-227.94	-483.76	461.78	104.01	-448.06	267.22	-129.09	-612.81	1321.3	57.879	-642.89	978.72	33.299	-373.51	22.54	-133.58	-467.38	75.298	-17.01	-569.15	1554	18.76	-610.16	1138.7	-33.121	-641.48	978.88	-82.495	-581.51	1027.6	-261.06	-536.97	351.91	39.068	-590.69	786.93	-277.67	-622.03	320.96	109.66	-853.56	243.12	40.767	-777.09	217.81	14.699	-615.87	304	40.104	-731.5	50.355	68.486	-746.71	80.678	38.414	-694.12	254.77	41.363	-434.81	811.91	174.74	-602.85	1020	-193.03	-562.15	1557.5	-108.39	-557.93	1023.4	134.42	-794.96	94.145	104.98	-806.75	224.67	90.621	-531.72	29.335	-43.741
293	1.465	-388.57	1585.6	-1.3309	-439.12	1342.9	-48.595	-364.07	1119.1	-36.841	-418.63	940.45	-158.63	-424.45	944.19	105.18	-486.99	1361.5	125.03	-514.89	1152.3	192.07	-540.13	1046.5	216.67	-465.33	909.94	218.01	-481.37	798.39	228.38	-502.04	1351.8	-217.34	-540.92	1144.3	-256.08	-536.73	901.38	-269.84	-540.05	739.88	-269.04	-502.07	740.86	145.29	-422.78	664.39	106.18	-457.08	564.76	-157.31	-408.99	668.67	-150.05	-478.85	649.19	-177.7	-444.27	456.65	-142.23	-414.75	360.67	-59.824	-436.93	174.42	-53.823	-424.79	265.51	-60.407	-482.53	61.447	-96.936	-334.18	38.776	-55.617	-288.76	30.457	-82.404	-474.66	555.32	117.36	-499.1	742	-198.71	-388.36	1581.2	-74.207	-563.57	1422.9	-44.595	-429.94	764.86	223.09	-489.39	648.36	129.39	-530.65	783.99	-227.83	-473.74	463.73	104.03	-446.97	267.11	-129.12	-607.67	1322.1	57.422	-637.54	979.64	33.234	-373.52	22.51	-133.64	-467.28	75.285	-16.968	-563.62	1554.9	18.658	-604.96	1139.5	-33.649	-636.43	979.66	-82.54	-574.37	1028.2	-261.84	-526.21	353.66	38.906	-581.95	787.42	-278.25	-611.15	322.25	109.34	-842.39	242.74	39.733	-765.42	218.19	14.12	-604.81	305.37	39.803	-717.7	51.737	70.243	-733.16	81.7	39.701	-682.85	255.76	40.934	-432.29	812.04	174.82	-596.38	1020.5	-194.05	-556.6	1558.4	-108.5	-554.04	1024.3	134.09	-781.82	95.505	105.88	-795.4	225.23	89.976	-531.71	29.379	-43.664
294	1.47	-383.03	1586.2	-1.3576	-433.89	1343.7	-48.775	-359	1119.8	-36.976	-414	941.03	-159.34	-419.52	945.05	105.37	-481.96	1362.2	124.88	-510.58	1153	191.76	-536.2	1047.3	216.28	-462.26	910.34	217.93	-479	798.91	228.45	-496.61	1352.7	-217.54	-534.51	1145.1	-256.55	-528.71	902.15	-270	-531.05	740.66	-268.96	-495.58	742.23	145.34	-415.3	666.53	106.62	-454.32	564.8	-157.32	-405.52	668.35	-150.15	-475.51	649.37	-177.71	-442.29	456.56	-142.21	-413.35	360.45	-59.776	-436.36	174.3	-53.783	-423.81	265.33	-60.355	-482.49	61.495	-96.893	-334.18	38.786	-55.662	-288.71	30.415	-82.502	-466.17	556.95	117.46	-495.11	742.33	-198.72	-382.81	1581.9	-74.238	-558.25	1423.8	-44.825	-427.8	765	223.22	-481.91	649.88	129.53	-522.46	784.88	-227.7	-463.82	465.7	104.03	-445.92	267.02	-129.11	-602.55	1322.9	56.988	-632.2	980.55	33.199	-373.53	22.483	-133.68	-467.17	75.269	-16.917	-558.11	1555.7	18.583	-599.77	1140.4	-34.171	-631.38	980.43	-82.549	-567.23	1028.8	-262.63	-515.4	355.39	38.736	-573.14	787.93	-278.82	-600.24	323.42	109	-831.07	241.99	38.674	-753.6	218.27	13.518	-593.7	306.61	39.496	-703.62	52.934	71.975	-719.36	82.496	40.957	-671.46	256.55	40.491	-429.77	812.17	174.9	-589.94	1021	-195.1	-551.06	1559.4	-108.59	-550.21	1025.1	133.76	-768.44	96.586	106.75	-783.89	225.47	89.308	-531.69	29.423	-43.582
295	1.475	-377.49	1586.8	-1.3664	-428.68	1344.4	-48.941	-353.93	1120.5	-37.121	-409.38	941.6	-160.07	-414.58	945.9	105.57	-476.93	1362.8	124.74	-506.26	1153.6	191.44	-532.28	1048.1	215.89	-459.19	910.73	217.85	-476.63	799.43	228.52	-491.22	1353.7	-217.73	-528.12	1145.8	-257.02	-520.66	902.94	-270.14	-521.96	741.49	-268.87	-489.14	743.59	145.39	-407.88	668.69	107.09	-451.58	564.83	-157.29	-402.06	668.01	-150.23	-472.18	649.53	-177.67	-440.32	456.47	-142.15	-411.96	360.23	-59.702	-435.8	174.19	-53.731	-422.82	265.14	-60.287	-482.46	61.547	-96.842	-334.19	38.794	-55.701	-288.66	30.377	-82.587	-457.73	558.62	117.55	-491.12	742.64	-198.69	-377.27	1582.5	-74.252	-552.95	1424.6	-45.036	-425.66	765.16	223.37	-474.47	651.39	129.66	-514.2	785.8	-227.57	-453.98	467.69	104.01	-444.88	266.92	-129.08	-597.44	1323.6	56.577	-626.87	981.45	33.19	-373.54	22.457	-133.73	-467.06	75.252	-16.857	-552.6	1556.5	18.532	-594.59	1141.2	-34.685	-626.33	981.18	-82.525	-560.09	1029.4	-263.44	-504.55	357.09	38.564	-564.25	788.45	-279.36	-589.3	324.47	108.66	-819.61	240.87	37.616	-741.62	218.06	12.909	-582.52	307.74	39.191	-689.28	53.943	73.66	-705.31	83.074	42.169	-659.96	257.13	40.047	-427.25	812.3	174.99	-583.52	1021.5	-196.17	-545.55	1560.3	-108.65	-546.45	1026	133.43	-754.85	97.387	107.59	-772.23	225.4	88.63	-531.68	29.469	-43.493
296	1.48	-371.97	1587.4	-1.3583	-423.49	1345.1	-49.093	-348.88	1121.2	-37.279	-404.77	942.17	-160.81	-409.61	946.74	105.76	-471.91	1363.5	124.6	-501.93	1154.3	191.12	-528.37	1048.9	215.51	-456.12	911.12	217.78	-474.26	799.94	228.6	-485.87	1354.6	-217.9	-521.76	1146.6	-257.49	-512.58	903.76	-270.26	-512.79	742.36	-268.77	-482.74	744.95	145.45	-400.51	670.87	107.57	-448.85	564.84	-157.23	-398.61	667.65	-150.28	-468.87	649.68	-177.6	-438.36	456.38	-142.06	-410.58	360.01	-59.603	-435.23	174.07	-53.667	-421.82	264.96	-60.203	-482.42	61.604	-96.784	-334.19	38.802	-55.735	-288.61	30.343	-82.66	-449.33	560.3	117.63	-487.15	742.93	-198.62	-371.74	1583.2	-74.25	-547.66	1425.4	-45.231	-423.52	765.31	223.53	-467.06	652.9	129.8	-505.89	786.75	-227.43	-444.24	469.7	103.99	-443.86	266.84	-129.03	-592.35	1324.4	56.188	-621.55	982.34	33.203	-373.55	22.434	-133.77	-466.96	75.234	-16.791	-547.11	1557.3	18.505	-589.43	1142	-35.188	-621.27	981.91	-82.469	-552.96	1030	-264.25	-493.68	358.74	38.396	-555.3	788.99	-279.87	-578.34	325.4	108.31	-808.02	239.4	36.581	-729.5	217.56	12.305	-571.28	308.74	38.898	-674.7	54.766	75.278	-691.04	83.446	43.326	-648.34	257.5	39.61	-424.74	812.42	175.1	-577.12	1022	-197.27	-540.05	1561.2	-108.69	-542.74	1026.8	133.08	-741.03	97.906	108.37	-760.43	225	87.956	-531.66	29.516	-43.4
